<?xml version="1.0" encoding="utf-8"?>
<svg xmlns="http://www.w3.org/2000/svg"
     viewBox="845 129 1353 1353">

  <defs>
    <!-- Vertical gradient -->
    <linearGradient id="bgGrad" gradientUnits="userSpaceOnUse"
                    x1="1521.5" y1="129" x2="1521.5" y2="1482">
      <stop offset="0" stop-color="#1AA15F"/>
      <stop offset="1" stop-color="#2B6FDF"/>
    </linearGradient>
  </defs>

  <!-- Rounded gradient background -->
  <rect x="845" y="129" width="1353" height="1353"
        rx="220" ry="220"
        fill="url(#bgGrad)"/>

  <!-- Icon in white -->
  <g fill="#FFFFFF">
    <!-- Roof -->
    <polygon points="1522.1,316.1 924.8,911.3 992.7,911.3 1521.6,384.9 2051.3,911.3 2118.3,911.3"/>

    <!-- Cabin + circuit base -->
    <path d="M1948.8,926.2h56.7l-483.5-482.8l-482.4,482.8h54.7v317.6h-87.5v49.9h1030.8v-47.8h-88.9V926.2z
      M1541.7,529.1L1890.6,878h-176.7l-172.3-236.5V529.1z
      M1665.8,878.2h-288.5l144.3-199.5L1665.8,878.2z
      M1502.7,529.1v111.5l-172.9,237.6h-176L1502.7,529.1z
      M1267.7,1243.6H1144v-81.9l71.2-73.5V1015
      c10.3-3.8,17.7-13.8,17.7-25.5c0-15-12.2-27.1-27.1-27.1c-15,0-27.1,12.2-27.1,27.1c0,11.8,7.6,21.9,18.2,25.6v65.6
      L1144,1133V927.2h123.6V1243.6z
      M1205.8,1000.7c-6.1,0-11.1-5-11.1-11.1c0-6.2,5-11.1,11.1-11.1c6.1,0,11.1,5,11.1,11.1
      C1217,995.7,1212,1000.7,1205.8,1000.7z
      M1727.9,1243h-412.6v-39.2h181.1c4,10.1,13.8,17.2,25.2,17.2
      c15,0,27.1-12.2,27.1-27.1c0-15-12.2-27.1-27.1-27.1c-11.7,0-21.7,7.4-25.5,17.8h-180.8v-257h412.6V1243z
      M1510.6,1193.8c0-6.1,5-11.1,11.1-11.1c6.1,0,11.1,5,11.1,11.1c0,6.2-5,11.1-11.1,11.1
      C1515.6,1205,1510.6,1200,1510.6,1193.8z
      M1900.6,1133.6l-52.8-52.8V1014
      c10.3-3.8,17.6-13.8,17.6-25.4c0-15-12.2-27.1-27.1-27.1s-27.1,12.2-27.1,27.1
      c0,11.7,7.5,21.8,17.9,25.5v74.3l71.5,73.1v82.5H1776V927.5h124.6V1133.6z
      M1838.3,999.7c-6.1,0-11.1-5-11.1-11.1c0-6.2,5-11.1,11.1-11.1s11.1,5,11.1,11.1
      C1849.4,994.7,1844.4,999.7,1838.3,999.7z"/>
  </g>

</svg>
