<?xml version="1.0" encoding="utf-8"?>
<svg version="1.1" xmlns="http://www.w3.org/2000/svg"
     xmlns:xlink="http://www.w3.org/1999/xlink"
     viewBox="780 1330 1335 260" xml:space="preserve">

  <style type="text/css">
    .st2{fill:url(#SVGID_3_);}
    .st3{fill:url(#SVGID_4_);}
    .st4{fill:url(#SVGID_5_);}
    .st5{fill:url(#SVGID_6_);}
    .st6{fill:url(#SVGID_7_);}
    .st7{fill:url(#SVGID_8_);}
    .st8{fill:url(#SVGID_9_);}
  </style>

  <!-- Gradients (originals from your SVG) -->
  <linearGradient id="SVGID_3_" gradientUnits="userSpaceOnUse" x1="800.1133" y1="1449.4458" x2="2083.3589" y2="1449.4458">
    <stop offset="0" style="stop-color:#1AA15F"/>
    <stop offset="1" style="stop-color:#2B6FDF"/>
  </linearGradient>

  <linearGradient id="SVGID_4_" gradientUnits="userSpaceOnUse" x1="800.1133" y1="1473.6089" x2="2083.3589" y2="1473.6089">
    <stop offset="0" style="stop-color:#1AA15F"/>
    <stop offset="1" style="stop-color:#2B6FDF"/>
  </linearGradient>

  <linearGradient id="SVGID_5_" gradientUnits="userSpaceOnUse" x1="800.1133" y1="1443.8223" x2="2083.3589" y2="1443.8223">
    <stop offset="0" style="stop-color:#1AA15F"/>
    <stop offset="1" style="stop-color:#2B6FDF"/>
  </linearGradient>

  <linearGradient id="SVGID_6_" gradientUnits="userSpaceOnUse" x1="800.1133" y1="1473.6089" x2="2083.3589" y2="1473.6089">
    <stop offset="0" style="stop-color:#1AA15F"/>
    <stop offset="1" style="stop-color:#2B6FDF"/>
  </linearGradient>

  <linearGradient id="SVGID_7_" gradientUnits="userSpaceOnUse" x1="800.1133" y1="1472.3931" x2="2083.3589" y2="1472.3931">
    <stop offset="0" style="stop-color:#1AA15F"/>
    <stop offset="1" style="stop-color:#2B6FDF"/>
  </linearGradient>

  <linearGradient id="SVGID_8_" gradientUnits="userSpaceOnUse" x1="800.1133" y1="1449.1416" x2="2083.3589" y2="1449.1416">
    <stop offset="0" style="stop-color:#1AA15F"/>
    <stop offset="1" style="stop-color:#2B6FDF"/>
  </linearGradient>

  <linearGradient id="SVGID_9_" gradientUnits="userSpaceOnUse" x1="800.1133" y1="1449.1416" x2="2083.3589" y2="1449.1416">
    <stop offset="0" style="stop-color:#1AA15F"/>
    <stop offset="1" style="stop-color:#2B6FDF"/>
  </linearGradient>

  <!-- Wordmark paths (original st2–st8) -->
  <g>
    <path class="st2" d="M965.9,1394.1c-9.5-5.2-18.9-7.8-28.3-7.8c-10.7,0-20.5,2.7-29.3,8.1c-8.8,5.4-15.8,12.8-20.8,22.2
      c-5.1,9.4-7.6,19.9-7.6,31.5s2.5,22,7.6,31.5c5.1,9.4,12,16.8,20.8,22.2c8.8,5.4,18.6,8.1,29.3,8.1c8.7,0,17.8-2.2,27.4-6.7
      c9.5-4.5,18-10.5,25.5-18.2l32.5,35c-11.5,12.2-25.3,21.8-41.2,29c-15.9,7.2-31.7,10.8-47.3,10.8c-21.1,0-40.1-4.9-57.1-14.6
      c-17-9.7-30.4-23-40.1-39.8c-9.7-16.8-14.6-35.7-14.6-56.5c0-20.7,5-39.3,14.9-55.9c9.9-16.6,23.6-29.7,40.9-39.2
      c17.3-9.5,36.7-14.3,58.2-14.3c15.8,0,31.4,3.3,46.8,9.9c15.4,6.6,28.5,15.6,39.2,26.9l-32.2,38.9
      C983.6,1406.2,975.4,1399.3,965.9,1394.1z"/>

    <path class="st3" d="M1172,1404.8c12.6,10.4,18.9,25.1,19.1,43.9v107h-53.2v-18.5c-10.9,14-27.5,21-49.5,21
      c-17.4,0-31.2-4.7-41.2-14.1c-10-9.4-15-21.8-15-37.2c0-15.6,5.4-27.8,16.3-36.5c10.8-8.7,26.4-13.2,46.7-13.4h42.9v-1.8
      c0-7.9-2.7-14-8.1-18.2c-5.4-4.3-13.1-6.4-23.3-6.4c-6.9,0-14.6,1.1-23.3,3.3c-8.6,2.2-17.3,5.5-26,9.7l-14.9-36.5
      c13.4-6.1,26.2-10.6,38.4-13.5c12.3-2.9,25-4.4,38.1-4.4C1141.8,1389.1,1159.4,1394.3,1172,1404.8z M1126.4,1515.4
      c6.1-4,9.9-9.1,11.5-15.3v-14.3h-32.2c-15.2,0-22.8,5.7-22.8,17c0,5.7,2,10.2,5.9,13.5s9.4,5,16.3,5
      C1113.2,1521.3,1120.3,1519.4,1126.4,1515.4z"/>

    <path class="st4" d="M1371.7,1399.9c11.5,7,20.5,16.9,26.9,29.8c6.4,12.9,9.6,27.7,9.6,44.5c0,16.6-3.1,31.2-9.3,43.8
      c-6.2,12.6-15,22.3-26.4,29.2c-11.5,6.9-24.7,10.3-39.7,10.3c-10.3,0-19.7-2-28.1-5.9c-8.4-4-15.6-9.7-21.4-17.2v21.3h-54.1
      v-225.5h54.1v82.4c12-15.4,28.1-23.1,48.3-23.1C1346.8,1389.4,1360.1,1392.9,1371.7,1399.9z M1343.9,1502.5
      c6.6-7.5,9.9-17.3,9.9-29.5s-3.3-22-9.9-29.6c-6.6-7.6-15.2-11.4-25.7-11.4c-10.3,0-18.7,3.8-25.2,11.4
      c-6.5,7.6-9.7,17.5-9.7,29.6s3.2,22,9.7,29.5c6.5,7.5,14.9,11.2,25.2,11.2C1328.7,1513.7,1337.3,1510,1343.9,1502.5z"/>

    <path class="st5" d="M1563.2,1404.8c12.6,10.4,18.9,25.1,19.1,43.9v107h-53.2v-18.5c-10.9,14-27.5,21-49.5,21
      c-17.4,0-31.2-4.7-41.2-14.1c-10-9.4-15-21.8-15-37.2c0-15.6,5.4-27.8,16.3-36.5c10.8-8.7,26.4-13.2,46.7-13.4h42.9v-1.8
      c0-7.9-2.7-14-8.1-18.2c-5.4-4.3-13.1-6.4-23.3-6.4c-6.9,0-14.6,1.1-23.3,3.3c-8.6,2.2-17.3,5.5-26,9.7l-14.9-36.5
      c13.4-6.1,26.2-10.6,38.4-13.5c12.3-2.9,25-4.4,38.1-4.4C1533,1389.1,1550.6,1394.3,1563.2,1404.8z M1517.6,1515.4
      c6.1-4,9.9-9.1,11.5-15.3v-14.3h-32.2c-15.2,0-22.8,5.7-22.8,17c0,5.7,2,10.2,5.9,13.5c4,3.3,9.4,5,16.3,5
      C1504.4,1521.3,1511.5,1519.4,1517.6,1515.4z"/>

    <path class="st6" d="M1770.6,1406.1c10.8,11.4,16.3,26.6,16.3,45.9v103.6h-53.8v-88.1c0-9.3-2.5-16.7-7.6-22
      c-5.1-5.4-11.9-8.1-20.4-8.1c-8.9,0.2-16.3,3.1-22,8.8c-5.8,5.7-9.2,13.2-10.2,22.5v86.9h-54.1v-164.4h54.1v26.7
      c5.9-9.5,13.4-16.7,22.6-21.6c9.2-4.9,19.8-7.3,31.8-7.3C1745.3,1389.1,1759.8,1394.8,1770.6,1406.1z"/>

    <path class="st7" d="M1823.6,1342.6h55.6v213.1h-55.6V1342.6z"/>

    <path class="st8" d="M2077.1,1555.7l-14.6-37.7h-92.1l-14.9,37.7h-57.1l91.5-213.1h57.1l89.4,213.1H2077.1z
      M1987.1,1475.4h59l-29.2-76L1987.1,1475.4z"/>
  </g>
</svg>
